HIERARCHY
ROOT Hips
{
    OFFSET 0.0 0.0 0.0
    CHANNELS 6 Xposition Yposition Zposition Zrotation Xrotation Yrotation
    JOINT LeftHipJoint
    {
        OFFSET 0.1 0.0 0.0
        CHANNELS 3 Zrotation Xrotation Yrotation
        JOINT LeftUpLeg
        {
            OFFSET 127.31882550928006 0.0 0.0
            CHANNELS 3 Zrotation Xrotation Yrotation
            JOINT LeftLeg
            {
                OFFSET 0.0 0.0 -410.8742091185896
                CHANNELS 3 Zrotation Xrotation Yrotation
                JOINT LeftFoot
                {
                    OFFSET 0.0 0.0 -395.76344125478533
                    CHANNELS 3 Zrotation Xrotation Yrotation
                    End Site
                    {
                        OFFSET 0.0 -0.1 0.0
                    }
                }
            }
        }
    }
    JOINT LowerBack
    {
        OFFSET 0.0 0.0 0.1
        CHANNELS 3 Zrotation Xrotation Yrotation
        JOINT Spine
        {
            OFFSET 0.0 0.0 222.01939265308653
            CHANNELS 3 Zrotation Xrotation Yrotation
            JOINT Spine1
            {
                OFFSET 0.0 0.0 252.11843737311563
                CHANNELS 3 Zrotation Xrotation Yrotation
                JOINT LeftShoulder
                {
                    OFFSET 0.1 0.0 0.0
                    CHANNELS 3 Zrotation Xrotation Yrotation
                    JOINT LeftArm
                    {
                        OFFSET 139.48556158913323 0.0 0.0
                        CHANNELS 3 Zrotation Xrotation Yrotation
                        JOINT LeftForeArm
                        {
                            OFFSET 267.6820995948571 0.0 0.0
                            CHANNELS 3 Zrotation Xrotation Yrotation
                            JOINT LeftHand
                            {
                                OFFSET 233.97892127156223 0.0 0.0
                                CHANNELS 3 Zrotation Xrotation Yrotation
                                End Site
                                {
                                    OFFSET 0.1 0.0 0.0
                                }
                            }
                        }
                    }
                }
                JOINT Neck
                {
                    OFFSET 0.0 0.0 0.1
                    CHANNELS 3 Zrotation Xrotation Yrotation
                    JOINT Neck1
                    {
                        OFFSET 0.0 0.0 106.24073839215588
                        CHANNELS 3 Zrotation Xrotation Yrotation
                        End Site
                        {
                            OFFSET 0.0 0.0 112.98140346578505
                        }
                    }
                }
                JOINT RightShoulder
                {
                    OFFSET -0.1 0.0 0.0
                    CHANNELS 3 Zrotation Xrotation Yrotation
                    JOINT RightArm
                    {
                        OFFSET -139.48556158913323 0.0 0.0
                        CHANNELS 3 Zrotation Xrotation Yrotation
                        JOINT RightForeArm
                        {
                            OFFSET -267.6820995948571 0.0 0.0
                            CHANNELS 3 Zrotation Xrotation Yrotation
                            JOINT RightHand
                            {
                                OFFSET -233.97892127156223 0.0 0.0
                                CHANNELS 3 Zrotation Xrotation Yrotation
                                End Site
                                {
                                    OFFSET -0.1 0.0 0.0
                                }
                            }
                        }
                    }
                }
            }
        }
    }
    JOINT RightHipJoint
    {
        OFFSET -0.1 0.0 0.0
        CHANNELS 3 Zrotation Xrotation Yrotation
        JOINT RightUpLeg
        {
            OFFSET -127.31882550928006 0.0 0.0
            CHANNELS 3 Zrotation Xrotation Yrotation
            JOINT RightLeg
            {
                OFFSET 0.0 0.0 -410.8742091185896
                CHANNELS 3 Zrotation Xrotation Yrotation
                JOINT RightFoot
                {
                    OFFSET 0.0 0.0 -395.76344125478533
                    CHANNELS 3 Zrotation Xrotation Yrotation
                    End Site
                    {
                        OFFSET 0.0 -0.1 0.0
                    }
                }
            }
        }
    }
}
MOTION
Frames: 9
Frame Time: 0.03333333333333333
0.0 0.0 797.5192486283686 22.66887689658343 9.787301823260965 5.07974900379227 0.0 0.0 -5.963540027744094e-16 -1.973336947603793 -22.939144611637897 0.5844089183578232 2.1628854656404988 20.93456522506641 -0.6523064077359393 -6.896728590703373e-34 -1.987846675914698e-16 -3.975693351829396e-16 0.0 0.0 -5.963540027744094e-16 0.41895300750089814 5.134905975264221 0.3096385921632962 -2.6856149642281775 -2.347493945035438e-15 -1.6457410927809368e-15 0.0 0.0 -3.975693351829396e-16 1.5457028189672712 -48.96621505950549 54.28023433259503 -142.05598576888926 -1.5978638601091223e-14 1.221966577803572e-14 -3.1805546814635168e-15 0.0 0.0 0.0 0.0 -3.975693351829396e-16 4.824371423870869 8.933483359582985 1.1836271383409953 0.0 0.0 -3.975693351829396e-16 27.392218949361585 8.874744054238311 -74.76114083007323 32.560017661332 8.267462848525584e-15 -5.7278563936296624e-15 6.361109362927033e-15 -8.827812596100317e-32 -1.5902773407317582e-15 0.0 0.0 -5.963540027744094e-16 -2.194850899757874 -25.20180843973785 -1.7604379144114206 1.6268712308407351 25.64243329629701 -4.631147421368553 0.0 0.0 0.0
0.0 0.0 797.5192486283686 22.674127682796577 9.624993511333065 5.091979690108434 1.034509288605506e-33 -1.9878466759146977e-16 5.963540027744093e-16 -1.9438084316374713 -22.778940036342743 0.5878799936557977 2.141804554929397 20.88028520022639 -0.6477825549181182 0.0 0.0 -7.951386703658792e-16 1.034509288605506e-33 -1.9878466759146977e-16 5.963540027744093e-16 0.41496371294659845 5.12303465244497 0.30397033630233883 -2.68636412117907 -4.80679850127445e-15 1.4780082451036743e-15 0.0 0.0 0.0 0.9069890839641053 -48.76796787465671 53.871172195053084 -142.05359370624078 -3.947353541493728e-15 8.083676432953812e-15 -3.1805546814635168e-15 0.0 0.0 0.0 0.0 0.0 4.956681443839926 8.982199779533673 1.0852295159126963 0.0 0.0 0.0 27.133706656457974 8.84330305739166 -74.7009563910867 32.544331791045956 8.647815207900053e-15 -1.5777356899904254e-14 6.3611093629270335e-15 0.0 0.0 1.034509288605506e-33 -1.9878466759146977e-16 5.963540027744093e-16 -2.159467710697914 -25.00323995424683 -1.7624663816379116 1.5932967896041617 25.491959710760085 -4.5114662670921755 3.1805546814635164e-15 0.0 0.0
0.0 0.0 797.5192486283686 22.70741180445072 9.497946365193956 5.118988116789174 0.0 0.0 -3.975693351829396e-16 -1.9392023808712509 -22.689115342202317 0.5286877710926391 2.1295535053965953 20.951716201893475 -0.6305873292375195 0.0 0.0 7.951386703658792e-16 0.0 0.0 -3.975693351829396e-16 0.4212842716831134 5.190225128459863 0.2690505761156652 -2.6606208258600326 -2.5927342059649913e-15 3.3746682982796045e-16 0.0 0.0 0.0 0.22032933466924942 -48.640127340523556 53.4606544273376 -142.01890539315193 -1.8749240063050617e-15 1.4099759629375633e-14 3.1805546814635168e-15 0.0 0.0 0.0 0.0 0.0 4.922251848957469 8.870597291155173 1.1655741068617316 0.0 0.0 0.0 27.120899287075627 8.74403769645998 -74.61697779306962 32.45769575248749 3.8716697050029326e-16 -1.0050342409826074e-14 0.0 0.0 0.0 0.0 0.0 -3.975693351829396e-16 -2.1542978653593363 -24.906779327256068 -1.8332697280376997 1.5650932446440602 25.530411507205677 -4.408000341154376 -3.1805546814635168e-15 -1.5902773407317584e-15 7.951386703658792e-16
0.0 0.0 797.5192486283686 22.77325482886434 9.285236564016666 5.087292709757639 0.0 0.0 9.93923337957349e-16 -1.9382708849563155 -22.529938416140517 0.5994780964369999 2.1750241714964553 21.004893092271086 -0.7521029584260736 0.0 0.0 7.95138670365879e-16 0.0 0.0 9.93923337957349e-16 0.431805867427957 5.280242927507983 0.30328845410871824 -2.651508358238961 1.0212526152773608e-15 -1.1693926132936155e-15 0.0 0.0 -7.951386703658792e-16 -0.26112089335431166 -48.48646320216676 53.182037789117565 -142.0731105761796 8.083004015009318e-15 3.948730270299451e-15 0.0 0.0 0.0 0.0 0.0 -7.951386703658792e-16 4.819364766104295 8.866414829186583 1.182322746139552 0.0 0.0 -7.951386703658792e-16 27.00551596028367 8.665872009931373 -74.55373438786557 32.40751978522138 7.883510472398698e-15 4.333322891940548e-15 0.0 0.0 -3.1805546814635168e-15 0.0 0.0 9.93923337957349e-16 -2.158631780181628 -24.78893095948695 -1.8112750989023463 1.6052370625040442 25.724930379212086 -4.299419175248408 0.0 0.0 3.975693351829396e-16
0.0 0.0 797.5192486283686 22.890645332429347 9.204022956157804 5.071703848120799 0.0 0.0 5.963540027744094e-16 -1.9513201327272593 -22.438558009647082 0.6022514929253459 2.1879196791277296 20.927328604666155 -0.7871633831941389 0.0 0.0 3.975693351829396e-16 0.0 0.0 5.963540027744094e-16 0.4419230250851184 5.343292603916491 0.28643821379212714 -2.623444449808214 1.002763983407008e-15 -3.7471238516466613e-16 -3.1805546814635168e-15 2.2069531490250793e-32 -7.951386703658792e-16 -1.0003391990738155 -48.48427331892429 52.75632061052279 -142.19198117908405 8.07890348419338e-15 3.9571129813696254e-15 0.0 0.0 0.0 -3.1805546814635168e-15 2.2069531490250793e-32 -7.951386703658792e-16 4.793213487679273 8.90587882614313 1.2696113492319236 -3.1805546814635168e-15 2.2069531490250793e-32 -7.951386703658792e-16 26.655256644131743 8.505859099094895 -74.51388959624971 32.36315642546423 -9.544744519137067e-17 -2.3154590864869965e-14 0.0 0.0 -1.5902773407317584e-15 0.0 0.0 5.963540027744094e-16 -2.1764704082236297 -24.723679225955447 -1.7911287154566309 1.6433842819002555 25.749631393136426 -4.302776569107815 0.0 0.0 0.0
0.0 0.0 797.5192486283686 22.968306935101943 9.174635532682645 5.063030825027621 0.0 0.0 -1.987846675914698e-16 -1.968329807006264 -22.29614324992464 0.6042939851889693 2.197713090828324 20.753998695430468 -0.8012073346489 0.0 0.0 1.987846675914698e-16 0.0 0.0 -1.987846675914698e-16 0.45060183397191783 5.3630466070189895 0.27953145615762176 -2.6420513762467808 -1.1190658435762942e-15 -3.207206277435334e-15 -3.1805546814635164e-15 0.0 0.0 -1.6193882167580975 -48.356235137474584 52.35611931506836 -142.32992995569418 3.966835739481801e-15 -8.074133939327849e-15 3.1805546814635168e-15 0.0 0.0 -3.1805546814635164e-15 0.0 0.0 4.778385073853273 8.961333854441644 1.3746341262093986 -3.1805546814635164e-15 0.0 0.0 26.452818538868776 8.422801409292692 -74.4474981283372 32.37633034070135 -1.1725386718533728e-14 1.6651377049775557e-14 0.0 0.0 -1.5902773407317584e-15 0.0 0.0 -1.987846675914698e-16 -2.1981970355489766 -24.597564571085485 -1.7897853985527683 1.6780192062134986 25.70792572453062 -4.315496764956126 0.0 0.0 -3.975693351829396e-16
0.0 0.0 797.5192486283686 23.050880585758442 9.127915480427792 5.013048779869587 3.4483642953516864e-34 1.987846675914698e-16 -1.987846675914698e-16 -1.9687118097876803 -22.272102656618024 0.6684049037525382 2.2164082938739984 20.683333522178557 -0.8193411316858518 0.0 0.0 1.987846675914698e-16 3.4483642953516864e-34 1.987846675914698e-16 -1.987846675914698e-16 0.4539820255487393 5.3955562311319065 0.29387908461945 -2.5947962654138648 4.5008693410819064e-17 -1.987337068658099e-15 -3.1805546814635168e-15 3.310429723537619e-32 -1.1927080055488188e-15 -2.19618582094201 -48.34578408907107 51.97990303552671 -142.37438363397334 0.0 -0.0 3.1805546814635168e-15 1.7655625192200634e-31 6.3611093629270335e-15 -3.1805546814635168e-15 3.310429723537619e-32 -1.1927080055488188e-15 4.688488594985606 8.960546752202326 1.551623984719602 -3.1805546814635168e-15 3.310429723537619e-32 -1.1927080055488188e-15 26.278273917219867 8.414336909087057 -74.3742350876511 32.512247379779275 -1.3486303934738767e-14 1.0558480977463328e-14 0.0 0.0 -1.5902773407317584e-15 3.4483642953516864e-34 1.987846675914698e-16 -1.987846675914698e-16 -2.1980987409938257 -24.56629225797464 -1.7069746035433286 1.7210592977150208 25.70923245039233 -4.375922748149664 -5.689801087330283e-33 -1.6399735076296259e-15 -3.975693351829396e-16
0.0 0.0 797.5192486283686 23.045970229836442 9.125364122496517 5.0155858841908945 0.0 0.0 3.975693351829396e-16 -1.9524613960349153 -22.250583406058386 0.6807800459095122 2.2054893539620273 20.673038305873995 -0.791959364157921 0.0 0.0 -1.987846675914698e-16 0.0 0.0 3.975693351829396e-16 0.4517815305274203 5.408127548214752 0.2375460705572593 -2.556551177496325 1.2190184364992589e-15 -1.165803939123292e-15 0.0 0.0 -1.1927080055488188e-15 -2.915633711503106 -48.105770879080325 51.49783340320418 -142.3413790965008 8.073737562148729e-15 3.967642427410093e-15 -3.1805546814635168e-15 0.0 0.0 0.0 0.0 -1.1927080055488188e-15 4.741923029665027 8.940907815123131 1.7142161669194 0.0 0.0 -1.1927080055488188e-15 26.365425435830808 8.44793344047583 -74.2890416595308 32.550458636334774 5.727166716586254e-15 8.267940627400608e-15 8.827812596100317e-32 3.1805546814635168e-15 -3.1805546814635168e-15 0.0 0.0 3.975693351829396e-16 -2.1767307345205684 -24.510510506267906 -1.6857842553383477 1.7026808836534257 25.587705269364324 -4.392973437857075 0.0 0.0 0.0
0.0 0.0 797.5192486283686 23.10418590245931 8.957682450573973 5.013040040639648 0.0 0.0 -5.963540027744094e-16 -1.9498130813527275 -21.984221639208652 0.693788920965317 2.2211856186932253 20.59644401266874 -0.7781849985916179 0.0 0.0 7.951386703658792e-16 0.0 0.0 -5.963540027744094e-16 0.4612917856501547 5.456044674419738 0.20852619375617862 -2.52749243651116 -1.5811222389661466e-15 -4.325457919912721e-16 -6.896728590703373e-34 1.9878466759146977e-16 3.9756933518293955e-16 -3.461635948489241 -47.76762288451296 51.13137834255414 -142.46883702645786 0.0 -0.0 -9.541664044390549e-15 0.0 0.0 -6.896728590703373e-34 1.9878466759146977e-16 3.9756933518293955e-16 4.808258902467875 9.149210127646441 1.74681476105911 -6.896728590703373e-34 1.9878466759146977e-16 3.9756933518293955e-16 26.413426362630425 8.588804558089562 -74.24612257550173 32.62896129232699 2.1590401930081984e-15 -3.945934820614008e-15 6.3611093629270335e-15 8.827812596100317e-32 1.5902773407317584e-15 0.0 0.0 -5.963540027744094e-16 -2.1784792454689565 -24.270414562550663 -1.628863890299848 1.7586368015284473 25.629353740515732 -4.568481602347514 3.1805546814635168e-15 -1.5902773407317584e-15 3.975693351829396e-16
